<?xml version="1.0" encoding="UTF-8" standalone="no"?>
<!-- Created with Inkscape (http://www.inkscape.org/) -->
<svg xmlns:inkscape="http://www.inkscape.org/namespaces/inkscape" xmlns:rdf="http://www.w3.org/1999/02/22-rdf-syntax-ns#" xmlns="http://www.w3.org/2000/svg" xmlns:xlink="http://www.w3.org/1999/xlink" xmlns:ns1="http://sozi.baierouge.fr" xmlns:cc="http://creativecommons.org/ns#" xmlns:sodipodi="http://sodipodi.sourceforge.net/DTD/sodipodi-0.dtd" xmlns:dc="http://purl.org/dc/elements/1.1/" id="svg2" xml:space="preserve" viewBox="0 0 39.738 43.127" version="1.1" inkscape:version="0.91 r13725">
  <defs id="defs6">
    <linearGradient id="linearGradient26" y2="24.427" gradientUnits="userSpaceOnUse" x2="-24.301" gradientTransform="matrix(-.34104 .72368 .71576 .35784 -.45142 34.722)" y1="24.427" x1="-34.389">
      <stop id="stop28" style="stop-color:#988f7d" offset="0"/>
      <stop id="stop30" style="stop-color:#c7c2b8" offset=".35690"/>
      <stop id="stop32" style="stop-color:#dad9d6" offset=".99220"/>
      <stop id="stop34" style="stop-color:#dad9d6" offset="1"/>
    </linearGradient>
    <linearGradient id="linearGradient52" y2="25.749" gradientUnits="userSpaceOnUse" x2="-30.935" gradientTransform="matrix(-.20088 .7744 .69816 .49456 -.45136 34.723)" y1="25.749" x1="-36.411">
      <stop id="stop54" style="stop-color:#988f7d" offset="0"/>
      <stop id="stop56" style="stop-color:#c7c2b8" offset=".35690"/>
      <stop id="stop58" style="stop-color:#dad9d6" offset=".99220"/>
      <stop id="stop60" style="stop-color:#dad9d6" offset="1"/>
    </linearGradient>
    <linearGradient id="linearGradient74" y2="32.756" gradientUnits="userSpaceOnUse" x2="-23.996" gradientTransform="matrix(-.25736 .75744 .74856 .2836 -.45145 34.722)" y1="32.756" x1="-28.115">
      <stop id="stop76" style="stop-color:#988f7d" offset="0"/>
      <stop id="stop78" style="stop-color:#c7c2b8" offset=".35690"/>
      <stop id="stop80" style="stop-color:#dad9d6" offset=".99220"/>
      <stop id="stop82" style="stop-color:#dad9d6" offset="1"/>
    </linearGradient>
    <linearGradient id="linearGradient96" y2="27.781" gradientUnits="userSpaceOnUse" x2="-25.597" gradientTransform="matrix(-.34216 .72312 .71688 .35536 -.45157 34.722)" y1="27.781" x1="-31.792">
      <stop id="stop98" style="stop-color:#988f7d" offset="0"/>
      <stop id="stop100" style="stop-color:#c7c2b8" offset=".35690"/>
      <stop id="stop102" style="stop-color:#dad9d6" offset=".99220"/>
      <stop id="stop104" style="stop-color:#dad9d6" offset="1"/>
    </linearGradient>
    <linearGradient id="linearGradient118" y2=".9307" gradientUnits="userSpaceOnUse" x2="-23.668" gradientTransform="matrix(-.76784 .22448 .20992 .77216 -.45142 34.723)" y1=".9307" x1="-28.747">
      <stop id="stop120" style="stop-color:#988f7d" offset="0"/>
      <stop id="stop122" style="stop-color:#c7c2b8" offset=".35690"/>
      <stop id="stop124" style="stop-color:#dad9d6" offset=".99220"/>
      <stop id="stop126" style="stop-color:#dad9d6" offset="1"/>
    </linearGradient>
    <radialGradient id="radialGradient146" gradientUnits="userSpaceOnUse" cy="-10.265" cx="-32.624" gradientTransform="matrix(-.6224 .50264 -.46448 -.61648 -10.164 21.832)" r="18.622">
      <stop id="stop148" style="stop-color:#dcccbd" offset="0"/>
      <stop id="stop150" style="stop-color:#d8c3b4" offset=".1804"/>
      <stop id="stop152" style="stop-color:#cdaa9d" offset=".47840"/>
      <stop id="stop154" style="stop-color:#bd8377" offset=".8549"/>
      <stop id="stop156" style="stop-color:#b67367" offset="1"/>
    </radialGradient>
    <linearGradient id="linearGradient170" y2="20.034" gradientUnits="userSpaceOnUse" x2="-24.728" gradientTransform="matrix(-.39504 .69568 .6888 .40712 -.45171 34.722)" y1="20.034" x1="-37.234">
      <stop id="stop172" style="stop-color:#988f7d" offset="0"/>
      <stop id="stop174" style="stop-color:#c7c2b8" offset=".35690"/>
      <stop id="stop176" style="stop-color:#dad9d6" offset=".99220"/>
      <stop id="stop178" style="stop-color:#dad9d6" offset="1"/>
    </linearGradient>
    <linearGradient id="linearGradient196" y2="-13.993" gradientUnits="userSpaceOnUse" x2="-6.4926" gradientTransform="matrix(-.76776 -.22472 -.44304 .70392 -.45183 34.722)" y1="-13.993" x1="-10.765">
      <stop id="stop198" style="stop-color:#988f7d" offset="0"/>
      <stop id="stop200" style="stop-color:#c7c2b8" offset=".35690"/>
      <stop id="stop202" style="stop-color:#dad9d6" offset=".99220"/>
      <stop id="stop204" style="stop-color:#dad9d6" offset="1"/>
    </linearGradient>
  </defs>
  <g id="g10" transform="matrix(1.25 0 0 -1.25 0 43.127)">
    <g id="g12">
      <path id="path14" style="fill-rule:evenodd;fill:#fbf9f4" d="m24.707 26.56c0.109-0.023 0.215-0.05 0.32-0.078 0.399-0.16 0.813-0.359 1.243-0.601 0.371 0.16 0.718 0.226 1.039 0.203 0.597 0 1.183-0.203 1.761-0.602 0.039-0.023 0.078-0.05 0.118-0.082h-0.02l-1.461 0.442c-0.426 0.027-0.707 0.039-0.84 0.039l-0.398-0.16 0.558-0.481c0.028 0 0.067-0.039 0.121-0.117-0.109 0-0.226-0.039-0.359-0.121h-0.039c-0.055-0.027-0.109-0.067-0.16-0.121-0.375 0.293-0.735 0.562-1.082 0.801l-0.281 0.242c-0.344 0.238-0.598 0.344-0.758 0.316-0.242 0.028-0.559 0-0.961-0.078l-0.238-0.078c0.078-0.055 0.16-0.109 0.238-0.16l0.402-0.242 0.117-0.039c0.028-0.055 0.082-0.094 0.161-0.122 0.187-0.132 0.386-0.281 0.601-0.437v-0.043c0.293-0.184 0.547-0.414 0.758-0.68-0.133-0.051-0.277-0.105-0.438-0.16l-0.32 0.242c-0.695 0.586-1.242 1-1.641 1.239-0.078 0.054-0.171 0.105-0.281 0.16-0.558 0.32-1.105 0.414-1.64 0.281l0.48 0.199c0.375 0.106 0.867 0.012 1.481-0.281l0.039 0.043c0.187 0.184 0.457 0.305 0.8 0.359 0.27 0.078 0.496 0.117 0.68 0.117zm5.32-0.519 1.2 0.281v-0.16c-0.079-0.187-0.266-0.359-0.559-0.519-0.293-0.133-0.613-0.215-0.957-0.243-0.27-0.023-0.363 0.043-0.281 0.203 0.078 0.161 0.277 0.305 0.597 0.438zm-11.32-1.719c0.535 0.106 0.828 0.012 0.883-0.281 0.027-0.16-0.028-0.332-0.16-0.52-0.082-0.132-0.16-0.199-0.242-0.199-0.133 0.028-0.25 0.039-0.36 0.039-0.426-0.027-0.68 0.055-0.758 0.242-0.109 0.211 0.078 0.438 0.559 0.68l0.078 0.039zm0.922-2.762c0.187 0.161 0.293 0.149 0.32-0.039 0.028-0.16-0.039-0.265-0.199-0.32-0.137-0.027-0.203 0-0.203 0.082 0 0.106 0.027 0.199 0.082 0.277zm-0.242-3c0.402 0.348 0.601 0.364 0.601 0.043-0.133-0.027-0.347-0.187-0.64-0.48-0.16-0.105-0.211-0.094-0.16 0.039 0.027 0.16 0.093 0.293 0.199 0.398zm9.601 3.762c-0.48 0.613-0.972 1.16-1.48 1.641 0.054 0.133 0.094 0.226 0.121 0.277 0 0.11 0.027 0.203 0.078 0.281 0.055-0.105 0.121-0.199 0.203-0.281l1.117-1.84c0-0.023 0.016-0.066 0.043-0.117l-0.082 0.039zm-1.84-0.121-0.121 0.082-0.039 0.039-0.32 0.36c0.027 0.082 0.055 0.148 0.082 0.199l0.277-0.399c0.028-0.105 0.067-0.199 0.121-0.281z" inkscape:connector-curvature="0"/>
      <g id="g16">
        <g id="g18">
          <g id="g24">
            <path id="path36" style="fill-rule:evenodd;fill:url(#linearGradient26)" d="m23.227 26.084c0.132 0.137 0.32 0.246 0.562 0.316 0.348 0.137 0.652 0.188 0.918 0.16-0.184 0-0.414-0.039-0.68-0.117-0.343-0.054-0.613-0.175-0.8-0.359zm1.562-1c0.215-0.098 0.406-0.219 0.582-0.363-0.156 0.121-0.348 0.226-0.582 0.32v0.043zm-0.879 0.598-0.402 0.242c-0.082 0.051-0.16 0.105-0.238 0.16l0.238 0.078c0.402 0.078 0.719 0.106 0.961 0.078 0.16 0.028 0.414-0.078 0.758-0.316-0.133 0.023-0.293 0-0.481-0.082-0.293-0.133-0.453-0.199-0.476-0.199l-0.36 0.039zm2-1.122c-0.16 0.137-0.348 0.282-0.562 0.442 0.187 0.133 0.281 0.254 0.281 0.359 0.055 0.055 0.012 0.16-0.121 0.321 0.347-0.239 0.707-0.508 1.082-0.801-0.215-0.106-0.442-0.211-0.68-0.321zm1.598-0.597c0.508-0.481 1-1.028 1.48-1.641 0.188-0.613 0.227-1.054 0.121-1.32-0.132-0.238-0.359-0.188-0.683 0.16l0.082 0.078c0.16 0.215 0.226 0.375 0.199 0.481 0.055 0.082 0.043 0.226-0.039 0.441-0.055 0.215-0.121 0.348-0.199 0.398-0.188 0.161-0.492 0.137-0.922-0.078-0.16 0.266-0.32 0.52-0.477 0.758 0.184 0.32 0.332 0.563 0.438 0.723z" inkscape:connector-curvature="0"/>
          </g>
        </g>
      </g>
      <path id="path38" style="fill-rule:evenodd;fill:#b4ac94" d="m25.91 24.56c-0.082-0.023-0.148-0.05-0.203-0.078l-0.34 0.239c-0.172 0.144-0.363 0.265-0.578 0.363-0.215 0.156-0.414 0.305-0.601 0.437-0.079 0.028-0.133 0.067-0.161 0.122l-0.117 0.039 0.36-0.039c0.023 0 0.183 0.066 0.48 0.199 0.184 0.082 0.344 0.105 0.477 0.082l0.281-0.242c0.133-0.161 0.176-0.266 0.121-0.321 0-0.105-0.094-0.226-0.281-0.359 0.214-0.16 0.402-0.305 0.562-0.442zm-1.32-4.359 0.437-1c-0.211-0.293-0.547-0.558-1-0.801-0.984-0.558-1.945 0-2.879 1.684-0.238 0.504-0.386 1-0.441 1.476-0.023 0.161-0.023 0.297 0 0.403 0-0.082 0.016-0.172 0.043-0.281-0.027 0.214-0.016 0.414 0.039 0.601 0.051-0.48 0.199-0.933 0.438-1.359 0.269-0.535 0.535-0.789 0.8-0.762 0.321-0.027 0.989 0.414 2 1.32 0.055 0.051 0.094 0.094 0.121 0.121l0.122 0.118c0.05 0.082 0.156 0.175 0.316 0.281 0.269 0.238 0.695 0.652 1.281 1.238 0 0.055 0.043 0.094 0.121 0.121 0.028 0.055 0.082 0.106 0.16 0.16 0.028 0.028 0.067 0.055 0.122 0.082 0.023 0.051 0.066 0.106 0.117 0.161 0.027 0.05 0.066 0.105 0.121 0.16 0.211 0.265 0.332 0.476 0.359 0.636 0.028 0.161 0 0.309-0.082 0.442 0.133 0.082 0.254 0.121 0.36 0.121-0.051 0.078-0.09 0.117-0.118 0.117l-0.558 0.481c0.289-0.184 0.543-0.371 0.758-0.559 0.082 0.027 0.148 0.012 0.199-0.039 0.039 0 0.082-0.016 0.121-0.039-0.027-0.055-0.039-0.137-0.039-0.242v-0.078c-0.055-0.161-0.149-0.336-0.281-0.524-0.11-0.183-0.27-0.383-0.481-0.597-0.082-0.055-0.133-0.122-0.16-0.2-0.055-0.054-0.094-0.109-0.121-0.16-0.078-0.082-0.145-0.16-0.199-0.242-0.106-0.051-0.188-0.117-0.243-0.199-0.023-0.028-0.039-0.051-0.039-0.078-0.453-0.508-0.851-0.934-1.199-1.282-0.105-0.105-0.199-0.214-0.281-0.32-0.078-0.055-0.145-0.121-0.199-0.199l-0.039-0.082h-0.039c-0.586-0.664-1.106-1.106-1.559-1.321-0.238-0.105-0.492-0.093-0.758 0.043l-0.039 0.04-0.082 0.039c-0.453 0.425-0.762 0.878-0.918 1.359 0.156-0.719 0.477-1.277 0.957-1.68 0.613-0.64 1.215-0.801 1.801-0.48l0.242 0.121c0.078 0.027 0.238 0.082 0.477 0.16 0.242 0.16 0.308 0.453 0.203 0.879-0.028 0.027-0.043 0.055-0.043 0.082 0.027 0.027 0.054 0.051 0.082 0.078zm2.879 5.52c-0.11-0.106-0.254-0.172-0.442-0.2-0.105 0.106-0.039 0.215 0.2 0.321l0.242-0.121zm1.601-0.239c-0.086 0.075-0.168 0.141-0.242 0.2l-0.039 0.082c0.211-0.028 0.52-0.215 0.918-0.563 0.348-0.32 0.586-0.465 0.719-0.437 0.16 0.027 0.359 0.199 0.601 0.519 0.321 0.371 0.493 0.719 0.52 1.039 0.105-0.082 0.187-0.254 0.238-0.519l-0.078-0.243c-0.055-0.371-0.266-0.73-0.641-1.078-0.32-0.293-0.531-0.386-0.64-0.281-0.051 0.133-0.227 0.32-0.52 0.563-0.187 0.183-0.398 0.371-0.64 0.558-0.036 0.031-0.071 0.059-0.098 0.078h0.02c-0.04 0.032-0.079 0.059-0.118 0.082zm-4.32-0.039 0.078-0.242 0.082-0.078 0.039-0.082h0.121c0.106 0 0.184 0.043 0.239 0.121-0.082 0.238-0.149 0.359-0.2 0.359-0.027 0.028-0.148 0-0.359-0.078zm-6.402-0.281c-0.133 0-0.266 0.027-0.399 0.078-0.133 0.028-0.226 0.067-0.281 0.121-0.215 0.082-0.398 0.215-0.559 0.403-0.082 0.105-0.132 0.199-0.16 0.277-0.054 0.027-0.082 0.066-0.082 0.121-0.023 0.188 0.016 0.375 0.121 0.559 0.028 0.027 0.039 0.054 0.039 0.082l0.082 0.199c0-0.027 0.012-0.051 0.039-0.078 0-0.16 0.028-0.321 0.079-0.481 0.027-0.16 0.082-0.308 0.16-0.441 0-0.027 0.027-0.039 0.082-0.039 0.027-0.055 0.054-0.121 0.078-0.199 0.055 0 0.094-0.016 0.121-0.043 0.133-0.024 0.266-0.012 0.402 0.043 0.239 0.05 0.477 0.238 0.719 0.558 0.027 0.106 0.094 0.227 0.199 0.36 0.106 0.214 0.188 0.453 0.239 0.718 0.32 0.961 0.468 2.094 0.441 3.403 0 1.386-0.094 2.48-0.281 3.281 0.136 0.266 0.269 0.398 0.402 0.398 0.078-0.16 0.16-0.828 0.238-2 0.188-2.906 0.188-4.8 0-5.679-0.023-0.028-0.039-0.055-0.039-0.082-0.105-0.399-0.332-0.746-0.679-1.039-0.266-0.266-0.536-0.442-0.801-0.52h-0.16zm-11.598-17.238c0.266 0.265 0.543 0.547 0.84 0.84 1.625 1.546 2.933 3.171 3.918 4.879 0.535 0.933 1.054 2.121 1.562 3.558 0.184 0.481 0.504 1.481 0.957 3 0.426 1.414 0.801 2.453 1.121 3.121 0.293 0.746 0.668 1.508 1.122 2.281 0.183 0.239 0.347 0.387 0.48 0.438h0.199c0-0.051 0.028-0.117 0.078-0.199-0.078-0.188-0.093-0.36-0.039-0.52l0.082-0.281 0.317-0.039c-0.051-0.078-0.117-0.121-0.199-0.121-0.184 0.027-0.415-0.16-0.68-0.559-0.293-0.375-0.465-0.707-0.52-1-0.027-0.238 0.016-0.574 0.121-1 0.079-0.16 0.145-0.32 0.2-0.48-0.133 0.187-0.332 0.265-0.602 0.242-0.238 0.023-0.465-0.32-0.68-1.043-0.183-0.664-0.238-1.199-0.16-1.598 0.082-0.32 0-0.629-0.238-0.922l-0.879-1c-0.27-0.32-0.441-0.824-0.523-1.519-0.079-0.801-0.211-1.359-0.399-1.68-0.719-1.387-1.906-2.851-3.558-4.398-0.403-0.453-0.989-0.949-1.762-1.481-0.078-0.054-0.332-0.226-0.758-0.519zm13.68 18.398 0.039 0.078 0.32-0.398-0.082-0.281c-0.105-0.293-0.211-0.481-0.32-0.559-0.078-0.105-0.239-0.172-0.477-0.199 0.133 0.055 0.266 0.187 0.399 0.398 0.187 0.321 0.226 0.641 0.121 0.961zm1.117-1.16c-0.184 0.293-0.399 0.559-0.637 0.801l0.719-0.481c0.371 0.133 0.652 0.133 0.84 0 0.16-0.187 0.238-0.347 0.238-0.48 0-0.055-0.039-0.149-0.117-0.281l0.84-0.84 0.238 0.082c0.027 0 0.055 0.012 0.082 0.039 0.531 0.238 0.906 0.281 1.121 0.121h0.039c-0.269-0.105-0.562-0.227-0.883-0.359-0.211-0.137-0.425-0.243-0.64-0.321-0.051 0.078-0.117 0.172-0.199 0.278-0.266 0.32-0.52 0.586-0.758 0.8l-0.282 0.2c0.188 0.136 0.215 0.269 0.079 0.402-0.051 0.078-0.145 0.105-0.278 0.078-0.109-0.027-0.176-0.078-0.199-0.16l-0.203 0.121zm-5.68-4.719c-0.023-0.027-0.051-0.043-0.078-0.043-0.348-0.105-0.508-0.023-0.48 0.243 0.027 0.292 0.16 0.492 0.398 0.597 0.055 0.028 0.109 0.043 0.16 0.043-0.023-0.293-0.023-0.574 0-0.84zm2.043 0.797c0.024 0.348 0.106 0.617 0.238 0.801 0.375 0.348 0.614 0.254 0.719-0.277 0.055-0.188 0.016-0.387-0.117-0.602-0.137-0.215-0.336-0.348-0.602-0.398-0.214-0.055-0.293 0.105-0.238 0.476zm1.879-0.957c-0.055 0.078-0.215 0.051-0.48-0.082-0.188-0.078-0.305-0.211-0.36-0.398-0.027-0.215 0.039-0.321 0.199-0.321 0.161 0.028 0.254 0.078 0.282 0.161 0.05 0.16 0.117 0.265 0.199 0.32 0.16 0.16 0.215 0.265 0.16 0.32zm-1.359 1.277c-0.137-0.05-0.227-0.132-0.282-0.238-0.054-0.133 0-0.187 0.161-0.16 0.132 0.055 0.253 0.16 0.359 0.32 0.105 0.161 0.027 0.188-0.238 0.078zm-0.961-6.558c-0.399-0.078-0.574 0.094-0.52 0.519 0.078 0.403 0.266 0.696 0.559 0.879 1.094 0.618 1.613 0.469 1.562-0.437-0.082-0.426-0.617-0.746-1.601-0.961zm0.238 3.082c-0.16-0.215-0.387-0.387-0.68-0.524l-0.16-0.078c-0.133-0.027-0.199 0.133-0.199 0.481-0.051 0.426 0.016 0.68 0.199 0.758l0.281 0.203c0.375 0.183 0.625 0.117 0.762-0.203 0.051-0.211-0.015-0.426-0.203-0.637zm1.32 0.957c-0.347-0.078-0.492 0.094-0.437 0.519 0.078 0.43 0.332 0.79 0.758 1.083 0.507 0.398 0.828 0.148 0.961-0.762-0.239-0.453-0.668-0.731-1.282-0.84zm1.723-1.117c-0.375-0.082-0.508-0.242-0.402-0.481 0.027-0.109 0.093-0.226 0.199-0.359-0.078 0.184 0.055 0.359 0.402 0.519 0.16 0.051 0.332 0.106 0.52 0.161 0.054 0.238-0.188 0.293-0.719 0.16zm-3.281-2.16c-0.055-0.215 0.027-0.321 0.238-0.321 0.188 0 0.297 0.039 0.32 0.117 0.028 0.161 0.067 0.254 0.121 0.282 0.188 0.105 0.282 0.226 0.282 0.359-0.028 0.133-0.176 0.133-0.442 0-0.265-0.105-0.441-0.254-0.519-0.437zm7.679 3.16v0.039c0.067-0.176 0.133-0.352 0.2-0.52 0.257-0.715 0.484-1.34 0.679-1.883 0.055-0.691-0.172-1.265-0.679-1.718-0.293-0.321-1.028-0.813-2.2-1.481-0.878-0.504-2.093-0.945-3.64-1.32-2.266-0.586-3.613-0.957-4.039-1.117-0.934-0.293-1.946-0.883-3.039-1.762-0.375-0.266-0.989-0.785-1.84-1.559-0.188-0.132-0.363-0.293-0.52-0.48-0.054-0.027-0.093-0.055-0.121-0.082h0.039c-0.32-0.266-0.625-0.531-0.918-0.797-1.629-1.547-2.574-2.43-2.843-2.641-0.344-0.32-0.586-0.519-0.719-0.601-0.293-0.133-0.586-0.121-0.879 0.039-0.481 0.215-1.055 0.293-1.719 0.242h-0.363l0.801-0.199c0.586-0.215 0.945-0.535 1.082-0.961 0.078-0.414 0.078-0.816 0-1.199v-0.043h-0.043l-0.117-0.16h-0.043c-0.477-0.371-1.012-0.598-1.598-0.68 0.508 0.133 0.867 0.359 1.078 0.68 0.27 0.429 0.309 0.867 0.121 1.32-0.266 0.641-0.734 1.043-1.398 1.199l-0.082-0.039c-0.211 0.133-0.387 0.215-0.52 0.242h-0.199c0.293 0.16 0.641 0.321 1.039 0.481 0.266 0.051 0.613 0.039 1.039-0.043 0.43-0.106 0.762-0.117 1-0.039 0.27 0.133 0.746 0.558 1.441 1.281 1.254 1.172 1.946 1.84 2.079 2 0.777 0.691 1.656 1.437 2.64 2.238-0.293-0.051-0.344 0.11-0.16 0.481 0.109 0.347 0.281 0.586 0.52 0.718 0.695 0.27 0.976 0.204 0.843-0.199 1.625 1.414 2.84 2.242 3.637 2.481 0.215 0.027 0.481 0.093 0.801 0.199 0.054 0.055 0.148 0.133 0.281 0.242 0.348 0.238 0.719 0.344 1.121 0.32 0.613 0.321 1.133 0.653 1.559 1l0.758 0.68-0.079-0.883 0.239 0.082c-0.133 0.239-0.051 0.465 0.242 0.68 0.133 0.106 0.465 0.254 1 0.441 0.613 0.211 0.973 0.094 1.082-0.363 0.586 0.242 1.117 0.656 1.598 1.242 0.55 0.707 0.832 1.524 0.839 2.442zm-5.16-1c0.215 0.238 0.469 0.398 0.762 0.476 0.746 0.11 1.117-0.078 1.117-0.558 0.028-0.453-0.211-0.758-0.719-0.918-0.746-0.242-1.214-0.094-1.398 0.437-0.082 0.16 0 0.348 0.238 0.563zm2.399-2.84c-0.024 0.266-0.184 0.359-0.477 0.277-0.297-0.051-0.629-0.226-1-0.519-0.242-0.239-0.242-0.442 0-0.602 0.078-0.023 0.211-0.051 0.399-0.078-0.188 0.188-0.039 0.305 0.441 0.359 0.238 0.055 0.477 0.082 0.719 0.082l-0.082 0.481zm7.242 5.758c0.055-0.215 0.094-0.387 0.121-0.52l0.039-0.039c-0.012-0.019-0.027-0.039-0.039-0.062-0.027-0.051-0.043-0.098-0.043-0.137l-0.281-0.402h-0.039c-0.024-0.055-0.051-0.094-0.078-0.122-0.266-0.105-0.508-0.023-0.719 0.243-0.133 0.238-0.469 0.851-1 1.84-0.293 0.531-0.547 0.972-0.762 1.32 0.055 0.105 0.133 0.199 0.242 0.277 0.157-0.238 0.317-0.492 0.481-0.758 0.426 0.215 0.73 0.239 0.918 0.078 0.082-0.05 0.148-0.183 0.199-0.398 0.082-0.215 0.094-0.359 0.043-0.441 0.023-0.106-0.043-0.266-0.203-0.481l-0.078-0.078c0.32-0.348 0.547-0.398 0.679-0.16 0.106 0.266 0.067 0.707-0.121 1.32l0.082-0.039c0.106-0.242 0.2-0.453 0.282-0.64l0.078-0.2c0.078-0.242 0.144-0.441 0.199-0.601zm-1.082 1.16c0 0.055-0.012 0.082-0.039 0.082-0.028 0.023-0.082 0.066-0.16 0.117l-0.278-0.117c-0.136-0.055-0.215-0.137-0.242-0.242-0.027-0.16 0-0.293 0.082-0.399 0.371 0.133 0.586 0.227 0.637 0.278-0.078-0.024-0.145-0.012-0.199 0.043-0.078 0.05-0.039 0.105 0.121 0.16l0.078 0.078zm-1.399 0.199 1-2.68c0.161-0.8 0-1.453-0.48-1.961v-0.039c-0.348-0.32-0.668-0.453-0.961-0.398-0.238 0.133-0.504 0.453-0.797 0.961l-1.082 2.437c0.082 0.106 0.188 0.215 0.32 0.321 0.028-0.051 0.067-0.106 0.122-0.16l0.199 0.199v0.043c0.719 0.238 1.133 0.293 1.238 0.16l0.121-0.363c0.082-0.266 0.016-0.504-0.199-0.719-0.188-0.16-0.332-0.293-0.441-0.399-0.106-0.054-0.184-0.093-0.239-0.121 0.266-0.293 0.492-0.519 0.68-0.679 0.32-0.215 0.547-0.082 0.68 0.398 0.242 0.856 0.148 1.883-0.282 3.082l0.121-0.082zm-1.558-1.598h-0.043c-0.16-0.16-0.184-0.335-0.078-0.519 0.078-0.188 0.215-0.254 0.398-0.203-0.051 0.137-0.066 0.242-0.039 0.32 0.027 0.055 0.055 0.106 0.082 0.16 0.106 0.106 0.293 0.133 0.559 0.082 0.027 0.293-0.121 0.414-0.442 0.36-0.078 0-0.226-0.067-0.437-0.2zm-13.281 3.957-0.039 0.161c-0.012 0.043-0.028 0.082-0.043 0.121 0.296 0 0.507 0.187 0.64 0.558 0.137 0.403 0.082 0.84-0.16 1.321-0.48 0.933-1.094 1.453-1.84 1.562 0.028 0.024 0.055 0.039 0.082 0.039 0.055 0.028 0.133 0.039 0.239 0.039 0.722-0.343 1.335-0.851 1.839-1.519 0.481-0.586 0.762-1.012 0.84-1.282 0.055-0.265-0.078-0.476-0.398-0.636-0.293-0.137-0.668-0.254-1.121-0.364h-0.039zm1.32-8.476c-0.266 0.023-0.32 0.211-0.16 0.559 0.133 0.32 0.32 0.519 0.558 0.597 0.348 0.082 0.442-0.105 0.282-0.558-0.188-0.426-0.414-0.625-0.68-0.598zm0.121 0.199c0.344 0.051 0.453 0.238 0.32 0.559l-0.32-0.239c-0.055-0.136-0.055-0.242 0-0.32zm0.559-2.359c-0.055 0.078-0.121 0.105-0.2 0.078-0.562-0.188-0.734-0.387-0.519-0.602 0.211-0.132 0.359-0.132 0.437 0-0.023 0.028-0.039 0.055-0.039 0.082 0.028 0.051 0.094 0.121 0.2 0.2 0.132 0.054 0.175 0.132 0.121 0.242zm0.359 0.758c0.055-0.055 0.094-0.239 0.121-0.559 0.215-0.535-0.215-0.906-1.281-1.121-0.559-0.133-0.719 0.055-0.481 0.558 0.188 0.458 0.442 0.774 0.762 0.961 0.481 0.266 0.773 0.321 0.879 0.161zm-3.121-4.598c0.055 0.105-0.039 0.117-0.277 0.039-0.133-0.055-0.243-0.188-0.321-0.402-0.054-0.211 0.028-0.239 0.239-0.078 0.054 0.05 0.105 0.078 0.16 0.078 0.027 0.054 0.054 0.082 0.082 0.082 0.05 0.078 0.093 0.172 0.117 0.281zm6.523 2.637v0.082c0.024 0.425-0.226 0.547-0.761 0.359-0.266-0.133-0.465-0.305-0.602-0.519-0.133-0.266-0.051-0.426 0.242-0.481h0.121c0.239 0.027 0.383 0.066 0.438 0.121 0 0.024-0.012 0.067-0.039 0.117-0.028 0.082-0.016 0.149 0.039 0.203 0.16 0.079 0.308 0.118 0.441 0.118h0.121z" inkscape:connector-curvature="0"/>
      <path id="path40" style="fill-rule:evenodd;fill:#8e8772" d="m24.789 25.041c0.234-0.094 0.426-0.199 0.582-0.32l0.34-0.239c-0.082-0.027-0.137-0.066-0.16-0.121-0.215 0.266-0.469 0.496-0.762 0.68zm2.68 0.68-0.242 0.121c-0.239-0.106-0.305-0.215-0.2-0.321 0.188 0.028 0.336 0.094 0.442 0.2zm-2.879-5.52c-0.028-0.027-0.055-0.051-0.082-0.078 0-0.027 0.015-0.055 0.039-0.082 0.109-0.426 0.043-0.719-0.199-0.879-0.239-0.078-0.399-0.133-0.481-0.16l-0.238-0.121c-0.586-0.321-1.188-0.16-1.801 0.48-0.48 0.403-0.801 0.961-0.957 1.68 0.156-0.481 0.465-0.934 0.918-1.359l0.082-0.039 0.039-0.04c0.266-0.136 0.52-0.148 0.758-0.043 0.453 0.215 0.973 0.657 1.559 1.321h0.043l0.039 0.082c0.05 0.078 0.117 0.144 0.199 0.199 0.082 0.106 0.176 0.215 0.281 0.32 0.348 0.348 0.746 0.774 1.199 1.282 0 0.027 0.016 0.05 0.039 0.078 0.055 0.082 0.133 0.148 0.243 0.199 0.05 0.082 0.117 0.16 0.199 0.242 0.027 0.051 0.066 0.106 0.121 0.16 0.023 0.078 0.078 0.145 0.16 0.2 0.211 0.214 0.371 0.414 0.477 0.597 0.136 0.188 0.23 0.363 0.281 0.524v0.078c0 0.105 0.015 0.187 0.043 0.242-0.043 0.023-0.082 0.039-0.121 0.039-0.055 0.051-0.121 0.066-0.203 0.039-0.211 0.188-0.465 0.375-0.758 0.559l0.402 0.16c0.133 0 0.41-0.012 0.84-0.039l1.457-0.442c0.031-0.019 0.062-0.047 0.102-0.078 0.238-0.187 0.453-0.375 0.64-0.558 0.293-0.243 0.465-0.43 0.52-0.563 0.105-0.105 0.32-0.012 0.64 0.281 0.371 0.348 0.586 0.707 0.641 1.078-0.027-0.425-0.281-1.05-0.762-1.878-0.019-0.036-0.039-0.079-0.058-0.122-0.024-0.015-0.043-0.035-0.063-0.058v-0.02c-0.058-0.105-0.125-0.214-0.199-0.32l-0.117-0.238c-0.028 0.16-0.055 0.304-0.082 0.437l0.039-0.758c-0.106-0.429-0.293-0.695-0.559-0.8-0.265-0.106-0.469-0.039-0.601 0.199-0.079 0.16-0.172 0.293-0.282 0.398l-1.117 1.84c-0.082 0.082-0.148 0.176-0.199 0.281-0.055-0.078-0.082-0.171-0.082-0.281-0.027-0.051-0.067-0.144-0.117-0.277-0.11-0.16-0.254-0.403-0.442-0.723-0.109-0.078-0.187-0.172-0.242-0.277 0.215-0.348 0.469-0.789 0.762-1.32 0.531-0.989 0.867-1.602 1-1.84 0.215-0.266 0.453-0.348 0.719-0.243 0.027 0.028 0.054 0.067 0.082 0.122h0.039l0.281 0.402c0 0.039 0.012 0.086 0.039 0.137 0.027-0.227 0.039-0.446 0.039-0.661 0-0.023-0.012-0.066-0.039-0.117 0-0.136-0.039-0.281-0.121-0.441v-0.078c-0.024-0.082-0.067-0.137-0.117-0.16v-0.082c-0.028-0.016-0.055-0.032-0.082-0.039-0.364-0.192-0.672 0.078-0.918 0.8-0.133 0.321-0.403 0.797-0.801 1.438-0.027 0.082-0.055 0.148-0.082 0.203-0.133 0.398-0.293 0.769-0.481 1.117-0.05 0.082-0.089 0.176-0.117 0.281l-0.281 0.399c-0.027-0.051-0.055-0.117-0.082-0.199-0.266-0.293-0.547-0.614-0.84-0.961-0.082-0.078-0.148-0.172-0.199-0.278-0.188-0.215-0.348-0.414-0.481-0.601-0.132-0.106-0.242-0.215-0.32-0.321l1.082-2.437c0.293-0.508 0.559-0.828 0.797-0.961 0.293-0.055 0.613 0.078 0.961 0.398v0.039c0.48 0.508 0.641 1.161 0.48 1.961 0.133-0.453 0.227-0.839 0.282-1.16v-0.398c0-0.055 0.011-0.121 0.039-0.199-0.082-0.668-0.625-1.149-1.641-1.442-0.238-0.054-0.441 0.106-0.601 0.481-0.289 0.746-0.559 1.425-0.797 2.039-0.188 0.398-0.442 0.894-0.762 1.48-0.027-0.027-0.051-0.054-0.078-0.082v-0.039zm0.16 5.242c0.211 0.078 0.332 0.106 0.359 0.078 0.051 0 0.118-0.121 0.2-0.359-0.055-0.078-0.133-0.121-0.239-0.121h-0.121l-0.039 0.082-0.082 0.078-0.078 0.242zm-4.32 1c0.023-0.027 0.023-0.066 0-0.121 0.105-0.32 0.066-0.64-0.121-0.961-0.133-0.211-0.266-0.343-0.399-0.398-0.293-0.106-0.707-0.149-1.242-0.121l-0.438 0.039-0.16 0.043-0.679 0.078-0.321 0.039-0.082 0.281c-0.05 0.16-0.039 0.332 0.039 0.52 0.082-0.106 0.188-0.215 0.321-0.321 0.082-0.078 0.175-0.144 0.281-0.199 0.082-0.054 0.187-0.094 0.32-0.121 0.133-0.051 0.293-0.078 0.481-0.078h0.039c-0.051 0.023-0.09 0.039-0.121 0.039h0.16c0.269 0.078 0.535 0.254 0.801 0.52 0.347 0.293 0.574 0.64 0.679 1.039 0 0.027 0.016 0.054 0.039 0.082 0.188 0.879 0.188 2.773 0 5.679-0.078 1.172-0.156 1.84-0.238 2h0.082c0.106-0.054 0.211-0.214 0.317-0.48v-0.039c0.16-0.426 0.281-1.586 0.359-3.481 0.109-1.867 0.121-2.949 0.043-3.242v-0.238c-0.028-0.238-0.082-0.426-0.16-0.559zm2.519-3.16v0.039c-0.48 0.696-0.949 1.305-1.402 1.84l0.203-0.121c0.023 0.082 0.09 0.133 0.199 0.16 0.133 0.027 0.227 0 0.278-0.078 0.136-0.133 0.109-0.266-0.079-0.402l0.282-0.2c0.238-0.214 0.492-0.48 0.758-0.8 0.082-0.106 0.148-0.2 0.199-0.278-0.16-0.054-0.305-0.109-0.438-0.16zm-4.519-1.723c0.265 0.11 0.343 0.083 0.238-0.078-0.106-0.16-0.227-0.265-0.359-0.32-0.161-0.027-0.215 0.027-0.161 0.16 0.055 0.106 0.145 0.188 0.282 0.238zm1.359-1.277c0.055-0.055 0-0.16-0.16-0.32-0.082-0.055-0.149-0.16-0.199-0.32-0.028-0.083-0.121-0.133-0.282-0.161-0.16 0-0.226 0.106-0.199 0.321 0.055 0.187 0.172 0.32 0.36 0.398 0.265 0.133 0.425 0.16 0.48 0.082zm-2.32-4.519c0.078 0.183 0.254 0.332 0.519 0.437 0.266 0.133 0.414 0.133 0.442 0 0-0.133-0.094-0.254-0.282-0.359-0.054-0.028-0.093-0.121-0.121-0.282-0.023-0.078-0.132-0.117-0.32-0.117-0.211 0-0.293 0.106-0.238 0.321zm3.281 2.16c0.531 0.133 0.773 0.078 0.719-0.16-0.188-0.055-0.36-0.11-0.52-0.161-0.347-0.16-0.48-0.335-0.402-0.519-0.106 0.133-0.172 0.25-0.199 0.359-0.106 0.239 0.027 0.399 0.402 0.481zm5.68-2.961c-0.133-0.535-0.403-0.988-0.801-1.36-0.375-0.347-0.961-0.722-1.758-1.121-0.668-0.347-2.082-0.761-4.242-1.242-2.426-0.64-3.961-1.066-4.602-1.277-0.933-0.348-2.41-1.309-4.437-2.883-0.106-0.051-0.199-0.117-0.281-0.199-0.133-0.106-0.266-0.199-0.399-0.281-0.082-0.079-0.16-0.145-0.242-0.2v-0.039c-1.707-1.547-3.094-2.718-4.16-3.519-0.32-0.215-0.531-0.36-0.637-0.442-0.16-0.16-0.215-0.359-0.16-0.601 0.051-0.266 0.023-0.516-0.082-0.758h-0.039l-0.16-0.121c0.078 0.387 0.078 0.789 0 1.203-0.137 0.426-0.496 0.746-1.082 0.957l-0.801 0.203h0.363c0.664 0.051 1.238-0.027 1.719-0.242 0.293-0.16 0.586-0.172 0.879-0.039 0.133 0.078 0.375 0.281 0.719 0.598 0.269 0.214 1.214 1.093 2.843 2.64 0.293 0.266 0.598 0.535 0.918 0.801h-0.039c0.028 0.027 0.067 0.055 0.121 0.082 0.157 0.184 0.332 0.344 0.52 0.477 0.851 0.773 1.465 1.296 1.84 1.562 1.093 0.879 2.105 1.465 3.039 1.758 0.426 0.16 1.773 0.535 4.039 1.121 1.547 0.375 2.762 0.812 3.64 1.32 1.172 0.664 1.907 1.16 2.2 1.481 0.507 0.453 0.734 1.023 0.679 1.718l0.161-0.48c0.082-0.348 0.148-0.641 0.199-0.879l0.043-0.199v-0.039zm-4.043 0.121 0.082-0.481c-0.242 0-0.481-0.027-0.719-0.082-0.48-0.054-0.629-0.171-0.441-0.359-0.188 0.027-0.321 0.055-0.399 0.078-0.242 0.16-0.242 0.363 0 0.602 0.371 0.293 0.707 0.465 1 0.519 0.293 0.082 0.453-0.011 0.477-0.277zm6.16 6.918-0.078-0.078c-0.16-0.055-0.199-0.11-0.121-0.16 0.054-0.055 0.121-0.067 0.199-0.043-0.051-0.051-0.266-0.145-0.637-0.278-0.082 0.106-0.109 0.239-0.082 0.399 0.027 0.105 0.106 0.187 0.242 0.242l0.278 0.117c0.082-0.051 0.132-0.094 0.16-0.117 0.027 0 0.039-0.027 0.039-0.082zm-2.957-1.399c0.211 0.133 0.359 0.2 0.437 0.2 0.321 0.05 0.469-0.067 0.442-0.36-0.266 0.051-0.453 0.024-0.559-0.082-0.027-0.051-0.055-0.105-0.082-0.16-0.027-0.078-0.012-0.183 0.043-0.32-0.187-0.051-0.32 0.015-0.402 0.203-0.106 0.184-0.082 0.359 0.082 0.519h0.039zm-10.363 4.559c-0.934-0.453-1.879-0.695-2.84-0.719-0.024 0.024-0.051 0.067-0.078 0.117h0.039c0.453 0.11 0.828 0.231 1.121 0.364 0.32 0.16 0.453 0.371 0.398 0.636-0.078 0.27-0.359 0.696-0.84 1.282-0.504 0.668-1.117 1.176-1.839 1.519h0.199c0.027-0.027 0.082-0.051 0.16-0.078 0.32-0.16 1-0.695 2.043-1.601 0.824-0.747 1.371-1.254 1.637-1.52zm-1.477-8.879c-0.055 0.078-0.055 0.184 0 0.32l0.32 0.239c0.133-0.321 0.024-0.508-0.32-0.559zm0.559-2.359c0.05-0.11 0.011-0.188-0.121-0.242-0.106-0.079-0.172-0.149-0.2-0.2 0-0.027 0.016-0.054 0.039-0.082-0.078-0.132-0.226-0.132-0.437 0-0.215 0.215-0.043 0.414 0.519 0.602 0.079 0.027 0.145 0 0.2-0.078zm-2.762-3.84c-0.024-0.109-0.067-0.203-0.117-0.281-0.028 0-0.055-0.028-0.082-0.082-0.055 0-0.106-0.028-0.16-0.078-0.211-0.161-0.293-0.137-0.239 0.078 0.078 0.214 0.188 0.347 0.321 0.402 0.238 0.078 0.332 0.066 0.277-0.039zm-10.68-9.082 0.403-0.281c-0.133 0.722 0.253 1.109 1.16 1.16 0.183 0 0.343-0.012 0.48-0.039l-0.242 0.242c0.133-0.082 0.242-0.188 0.32-0.32v-0.641l-0.078-0.082c-0.055-0.078-0.109-0.172-0.16-0.277-0.234-0.157-0.594-0.223-1.082-0.204-0.02 0.008-0.039 0.016-0.059 0.024l0.02-0.024c-0.348 0.083-0.602 0.227-0.762 0.442zm17.203 11.719h-0.121c-0.133 0-0.281-0.039-0.441-0.118-0.055-0.054-0.067-0.121-0.039-0.203 0.027-0.05 0.039-0.093 0.039-0.117-0.055-0.055-0.199-0.094-0.438-0.121h-0.121c-0.293 0.055-0.375 0.215-0.242 0.481 0.137 0.214 0.336 0.386 0.602 0.519 0.535 0.188 0.785 0.066 0.761-0.359v-0.082z" inkscape:connector-curvature="0"/>
      <g id="g42">
        <g id="g44">
          <g id="g50">
            <path id="path62" style="fill-rule:evenodd;fill:url(#linearGradient52)" d="m25.91 24.56c0.238 0.11 0.465 0.215 0.68 0.321 0.051 0.054 0.105 0.094 0.16 0.121h0.039c0.082-0.133 0.106-0.281 0.082-0.442-0.027-0.16-0.148-0.371-0.363-0.636-0.051-0.055-0.094-0.11-0.117-0.16-0.055-0.055-0.094-0.11-0.121-0.161-0.055-0.027-0.094-0.054-0.122-0.082-0.078-0.054-0.132-0.105-0.16-0.16-0.078-0.027-0.117-0.066-0.117-0.121-0.586-0.586-1.016-1-1.281-1.238-0.16-0.106-0.266-0.199-0.32-0.281l-0.239-0.239c-1.015-0.906-1.679-1.347-2-1.32-0.265-0.027-0.531 0.227-0.801 0.762-0.238 0.426-0.386 0.879-0.441 1.359-0.051-0.187-0.066-0.387-0.039-0.601-0.027 0.105-0.039 0.199-0.039 0.281 0 0.48 0.16 0.734 0.48 0.758 0.266 0.027 0.852 0.214 1.758 0.562 0.137 0.051 0.281 0.106 0.442 0.16 0.214 0.078 0.425 0.184 0.64 0.321 0.321 0.132 0.614 0.254 0.879 0.359 0.055 0.027 0.121 0.051 0.203 0.078 0.16 0.055 0.305 0.106 0.438 0.16 0.027 0.055 0.082 0.094 0.16 0.121 0.051 0.028 0.117 0.055 0.199 0.078zm-2.082-1.917c0.027 0.027 0.055 0.054 0.082 0.078 0.531 0.297 0.973 0.586 1.317 0.882 0.109 0.051 0.203 0.106 0.281 0.161 0 0.027 0.015 0.05 0.043 0.078 0.078 0.082 0.183 0.16 0.32 0.242 0.024 0.051 0.078 0.105 0.156 0.156 0.028 0.028 0.055 0.067 0.082 0.121l0.2 0.36c-0.161-0.078-0.293-0.133-0.399-0.161-0.055-0.023-0.094-0.066-0.121-0.117-0.078-0.027-0.16-0.054-0.238-0.082-0.137-0.078-0.281-0.144-0.442-0.199-0.082-0.027-0.148-0.055-0.199-0.078-0.508-0.242-1-0.457-1.48-0.641-0.16-0.054-0.309-0.121-0.442-0.203-0.453-0.156-0.867-0.293-1.238-0.398-0.16-0.215-0.27-0.399-0.32-0.559-0.055-0.242 0.05-0.375 0.32-0.402 0.266-0.106 0.852 0.094 1.758 0.601 0.105 0.055 0.215 0.106 0.32 0.161z" inkscape:connector-curvature="0"/>
          </g>
        </g>
      </g>
      <g id="g64">
        <g id="g66">
          <g id="g72">
            <path id="path84" style="fill-rule:evenodd;fill:url(#linearGradient74)" d="m28.75 25.721 0.039 0.043 0.039-0.082c-0.055 0-0.078 0.015-0.078 0.039zm2.477 0.562c0.054 0.024 0.109 0.051 0.16 0.078 0.082 0 0.136-0.011 0.16-0.039-0.024-0.32-0.199-0.668-0.52-1.039-0.238-0.32-0.437-0.496-0.597-0.519-0.133-0.028-0.375 0.117-0.719 0.437-0.402 0.348-0.707 0.535-0.922 0.563 0.348 0.078 0.762 0.171 1.238 0.277-0.316-0.133-0.515-0.277-0.597-0.438-0.082-0.16 0.011-0.226 0.281-0.203 0.348 0.028 0.664 0.11 0.961 0.243 0.289 0.16 0.476 0.332 0.558 0.519v0.121h-0.003zm0.562-0.48c0.027-0.375-0.215-1.028-0.719-1.961-0.058-0.09-0.117-0.184-0.183-0.282l0.062 0.122c0.481 0.828 0.735 1.453 0.758 1.878l0.082 0.243z" inkscape:connector-curvature="0"/>
          </g>
        </g>
      </g>
      <g id="g86">
        <g id="g88">
          <g id="g94">
            <path id="path106" style="fill-rule:evenodd;fill:url(#linearGradient96)" d="m27.309 26.084c0.48 0.023 0.961-0.094 1.441-0.363 0-0.024 0.023-0.039 0.078-0.039 0.078-0.059 0.156-0.125 0.242-0.2-0.578 0.399-1.164 0.602-1.761 0.602zm3-4.363c0.078 0.242 0.132 0.535 0.16 0.882l-0.039 0.758c0.027-0.133 0.05-0.277 0.078-0.437 0-0.457-0.067-0.856-0.199-1.203z" inkscape:connector-curvature="0"/>
          </g>
        </g>
      </g>
      <g id="g108">
        <g id="g110">
          <g id="g116">
            <path id="path128" style="fill-rule:evenodd;fill:url(#linearGradient118)" d="m19.789 34.482c-0.133 0-0.266-0.132-0.402-0.398 0.187-0.801 0.281-1.895 0.281-3.281 0.027-1.309-0.121-2.442-0.441-3.403-0.051-0.265-0.133-0.504-0.239-0.718-0.105-0.133-0.172-0.254-0.199-0.36-0.242-0.32-0.48-0.508-0.719-0.558-0.136-0.055-0.269-0.067-0.402-0.043-0.027 0.027-0.066 0.043-0.121 0.043-0.024 0.078-0.051 0.144-0.078 0.199-0.055 0-0.082 0.012-0.082 0.039-0.078 0.133-0.133 0.281-0.16 0.441-0.051 0.16-0.079 0.321-0.079 0.481-0.027 0.027-0.011 0.078 0.04 0.16 0.242 0.559 0.585 1.598 1.039 3.117 0.507 1.68 0.843 2.828 1 3.442 0.109 0.507 0.242 0.785 0.402 0.839 0.078 0.028 0.16 0.028 0.238 0h-0.078zm-2.762-8.64c-0.05 0.082-0.078 0.148-0.078 0.199 0.028-0.078 0.078-0.172 0.16-0.277 0.161-0.188 0.344-0.321 0.559-0.403 0.055-0.051 0.148-0.093 0.281-0.121 0.133-0.051 0.266-0.078 0.399-0.078 0.031 0 0.07-0.016 0.121-0.039h-0.039c-0.188 0-0.348 0.027-0.481 0.078-0.133 0.027-0.242 0.067-0.32 0.121-0.106 0.055-0.199 0.121-0.281 0.199-0.133 0.106-0.239 0.215-0.321 0.321zm1.043 1.242c1.305 3.891 1.614 5.559 0.918 5l-1.398-4.883c0.027-0.16 0.094-0.254 0.199-0.277 0.106-0.055 0.199 0 0.281 0.16z" inkscape:connector-curvature="0"/>
          </g>
        </g>
      </g>
      <path id="path130" style="fill-rule:evenodd;fill:#e6e6e1" d="m2.43 3.24c0.211-0.105 0.453-0.265 0.718-0.48l-1.281 0.043c-0.504 0.027-0.906-0.067-1.199-0.282-0.32-0.265-0.441-0.613-0.359-1.039 0.078-0.375 0.359-0.773 0.839-1.199-0.16 0.051-0.293 0.106-0.398 0.16-0.137 0.078-0.242 0.145-0.32 0.2-0.453 0.371-0.547 0.878-0.282 1.519 0 0.051 0.293 0.574 0.879 1.559 0.133 0.265 0.774 0.828 1.922 1.679l0.239 0.16c0.082 0.055 0.16 0.122 0.242 0.2 0.32 0.187 0.613 0.375 0.879 0.562 0.507 0.481 1.05 0.961 1.64 1.438 2 1.789 3.399 3.508 4.199 5.16 0.668 1.387 1.454 3.281 2.36 5.68 0.828 2.375 1.469 3.988 1.922 4.839 0.211 0.403 0.437 0.801 0.679 1.204l0.481 0.718c0.504 0.696 1.012 1.239 1.519 1.641 0 0.027 0.028 0.051 0.079 0.078-0.051-0.078-0.067-0.133-0.04-0.16-0.027 0.027-0.039 0.055-0.039 0.082l-0.082-0.199c-0.211-0.321-0.414-0.641-0.597-0.961-0.082-0.082-0.137-0.16-0.16-0.242-0.454-0.774-0.829-1.532-1.122-2.278-0.32-0.668-0.695-1.707-1.121-3.121-0.453-1.519-0.773-2.519-0.957-3-0.508-1.441-1.027-2.625-1.562-3.558-0.985-1.708-2.293-3.336-3.918-4.883-0.297-0.289-0.574-0.571-0.84-0.836-0.16-0.11-0.297-0.215-0.402-0.321 0.027-0.109-0.067-0.335-0.278-0.679-0.32-0.403-0.75-0.817-1.281-1.242-0.828-0.586-1.961-1.332-3.402-2.239h0.441c0.133-0.027 0.309-0.109 0.52-0.242l0.082 0.039zm15.64 23.844c-0.082-0.16-0.175-0.215-0.281-0.16-0.105 0.023-0.172 0.117-0.199 0.277l1.398 4.883c0.696 0.559 0.387-1.109-0.918-5zm5.758-4.441c-0.105-0.055-0.215-0.106-0.32-0.161-0.906-0.507-1.492-0.707-1.758-0.601-0.266 0.027-0.375 0.16-0.32 0.402 0.054 0.16 0.16 0.344 0.32 0.559 0.371 0.105 0.785 0.242 1.238 0.398 0.133 0.082 0.282 0.149 0.442 0.203 0.48 0.184 0.972 0.399 1.48 0.641 0.051 0.023 0.117 0.051 0.199 0.078 0.161 0.055 0.309 0.121 0.442 0.199 0.078 0.028 0.16 0.055 0.238 0.082 0.027 0.051 0.066 0.094 0.121 0.117 0.106 0.028 0.238 0.083 0.399 0.161l-0.2-0.36c-0.027-0.051-0.05-0.093-0.082-0.121-0.078-0.051-0.132-0.105-0.156-0.156-0.133-0.082-0.242-0.16-0.32-0.242-0.028-0.028-0.039-0.051-0.039-0.078-0.082-0.055-0.176-0.11-0.282-0.161-0.347-0.296-0.789-0.585-1.32-0.882-0.027-0.024-0.055-0.051-0.082-0.078zm-12.359 4.121c-0.321 0.746-0.399 1.066-0.242 0.957 0.48-0.321 0.855-0.864 1.121-1.637 0.054-0.109 0.066-0.231 0.039-0.363-0.024-0.161-0.094-0.211-0.199-0.161-0.106 0.055-0.344 0.458-0.719 1.204zm-8.481-25c0.426-0.243 0.453-0.563 0.082-0.961-0.328-0.375-0.793-0.453-1.402-0.243 0.488-0.019 0.848 0.047 1.082 0.204 0.051 0.105 0.105 0.199 0.16 0.277l0.078 0.082v0.641z" inkscape:connector-curvature="0"/>
      <path id="path132" style="fill-rule:evenodd;fill:#dadad6" d="m16.43 25.842c0.16 0.105 0.304 0.215 0.437 0.32 0-0.055 0.028-0.094 0.082-0.121h-0.199c-0.137-0.051-0.297-0.199-0.48-0.438 0.023 0.079 0.078 0.161 0.16 0.239zm-12.121-19.52c-0.266-0.187-0.559-0.375-0.879-0.558 0 1.519-0.176 3-0.52 4.437-0.961 2.43-1.59 4.215-1.883 5.359-0.48 2-0.039 4.016 1.321 6.043 1.308 1.918 2.988 2.946 5.039 3.079 1.148 0.054 2.816-0.028 5-0.239 0.961 0.024 1.906 0.266 2.84 0.719 0.136 0.055 0.253 0.121 0.363 0.199l-0.481-0.718c-0.75-0.321-1.507-0.508-2.281-0.559-2.078 0.266-3.668 0.359-4.758 0.277-1.976-0.133-3.59-1.144-4.843-3.039-1.278-1.922-1.692-3.84-1.239-5.762 0.293-1.144 0.895-2.89 1.801-5.238 0.32-1.281 0.492-2.613 0.52-4z" inkscape:connector-curvature="0"/>
      <path id="path134" style="fill-rule:evenodd;fill:#d3cfc6" d="m19.988 17.924c-0.238-0.215-0.32-0.403-0.238-0.563 0.184-0.531 0.652-0.679 1.398-0.437 0.508 0.16 0.747 0.465 0.719 0.918 0 0.48-0.371 0.668-1.117 0.558-0.293-0.078-0.547-0.238-0.762-0.476zm5.16 1c-0.007-0.918-0.289-1.735-0.839-2.442-0.481-0.586-1.016-1-1.602-1.242-0.105 0.457-0.465 0.574-1.078 0.363-0.535-0.187-0.867-0.335-1-0.441-0.293-0.215-0.375-0.441-0.242-0.68l-0.239-0.082 0.079 0.883-0.758-0.68c-0.426-0.347-0.949-0.679-1.563-1-0.398 0.024-0.773-0.082-1.117-0.32-0.137-0.109-0.227-0.187-0.281-0.242-0.32-0.106-0.586-0.172-0.801-0.199-0.801-0.239-2.012-1.067-3.641-2.481 0.137 0.403-0.144 0.469-0.839 0.199-0.239-0.132-0.415-0.371-0.52-0.718-0.187-0.371-0.133-0.532 0.16-0.481-0.984-0.801-1.867-1.547-2.64-2.238-0.133-0.16-0.825-0.828-2.079-2-0.695-0.723-1.175-1.148-1.441-1.281-0.238-0.082-0.574-0.067-1 0.039-0.426 0.082-0.773 0.094-1.039 0.043-0.398-0.16-0.746-0.321-1.039-0.481h-0.242c1.441 0.907 2.574 1.653 3.402 2.239 0.531 0.425 0.961 0.839 1.281 1.242 0.211 0.344 0.305 0.57 0.278 0.679 0.105 0.106 0.242 0.211 0.402 0.321 0.426 0.293 0.68 0.465 0.758 0.519 0.773 0.532 1.359 1.024 1.762 1.481 1.652 1.547 2.839 3.011 3.558 4.398 0.188 0.321 0.32 0.879 0.399 1.68 0.082 0.695 0.253 1.199 0.523 1.519l0.879 1c0.238 0.293 0.32 0.602 0.238 0.922-0.078 0.399-0.023 0.934 0.16 1.598 0.215 0.723 0.442 1.066 0.68 1.043 0.27 0.023 0.469-0.055 0.602-0.242-0.055 0.16-0.121 0.32-0.2 0.48-0.105 0.426-0.148 0.762-0.121 1 0.055 0.293 0.227 0.625 0.52 1 0.265 0.399 0.496 0.586 0.68 0.559 0.082 0 0.148 0.043 0.199 0.121l0.683-0.078c-0.027-0.082-0.027-0.149 0-0.203l0.157 0.16 0.441-0.039c0.535-0.028 0.949 0.015 1.242 0.121 0.238 0.027 0.399 0.094 0.477 0.199 0.109 0.078 0.215 0.266 0.32 0.559l0.082 0.281-0.32 0.398-0.039-0.078c0.023 0.051 0.023 0.094 0 0.121 0.011-0.015 0.027-0.027 0.039-0.043 0.121-0.121 0.254-0.254 0.402-0.398l0.039-0.039c0.238-0.242 0.453-0.508 0.641-0.801 0.453-0.535 0.918-1.144 1.398-1.84v-0.039c-0.906-0.348-1.492-0.535-1.761-0.562-0.317-0.024-0.477-0.278-0.477-0.758-0.027-0.106-0.027-0.242 0-0.403 0.051-0.476 0.199-0.972 0.437-1.476 0.934-1.684 1.895-2.242 2.879-1.684 0.457 0.243 0.789 0.508 1 0.801l-0.437 1v0.039c0.105-0.183 0.187-0.371 0.238-0.558 0.07-0.161 0.137-0.321 0.199-0.481 0.043-0.094 0.082-0.187 0.121-0.277zm-4.199 6.238c-0.426-0.508-0.773-0.746-1.039-0.719-0.508 0.266-0.988 0.305-1.441 0.117-0.453-0.21-0.762-0.386-0.922-0.519-0.211-0.16-0.32-0.414-0.32-0.758 0.054-0.695 0.136-1.176 0.242-1.441l0.32 0.519c0.238 0.348 0.504 0.496 0.801 0.442 0.183-0.055 0.371-0.176 0.558-0.36 0.133-0.109 0.254-0.121 0.36-0.043 0.16 0.082 0.32 0.203 0.48 0.364 0.133 0.16 0.321 0.332 0.559 0.519 0.453 0.344 0.84 0.504 1.16 0.481h0.242c-0.242 0.773-0.453 1.183-0.64 1.238l-0.36 0.16zm-0.402-4.801 0.363-0.238c-0.109 0.105-0.203 0.266-0.281 0.48-0.188 0.344-0.281 0.653-0.281 0.918l0.121 1-0.641-0.597-0.519-0.321c-0.028-0.16-0.067-0.296-0.121-0.402-0.106-0.183-0.278-0.32-0.52-0.398-0.613-0.215-0.934-0.496-0.961-0.84 0.027-0.16 0.121-0.469 0.281-0.922l0.16 0.48c0.106 0.375 0.227 0.614 0.36 0.719 0.133 0.082 0.402 0.27 0.801 0.563 0.371 0.238 0.613 0.332 0.718 0.281 0.133-0.082 0.227-0.215 0.282-0.402 0.078-0.161 0.16-0.266 0.238-0.321zm-4.68 0.082c-0.023 0.266-0.023 0.547 0 0.84-0.051 0-0.105-0.015-0.16-0.043-0.238-0.105-0.371-0.305-0.398-0.597-0.028-0.266 0.132-0.348 0.48-0.243 0.027 0 0.055 0.016 0.078 0.043zm2.043 0.797c-0.055-0.371 0.024-0.531 0.238-0.476 0.266 0.05 0.465 0.183 0.602 0.398 0.133 0.215 0.172 0.414 0.117 0.602-0.105 0.531-0.344 0.625-0.719 0.277-0.132-0.184-0.214-0.453-0.238-0.801zm0.039-3.68c-0.242-0.023-0.359-0.066-0.359-0.117l-0.32-0.519 0.48 0.16c0.426 0.078 0.73 0.09 0.918 0.039l0.48-0.082 0.122 0.602c0.16 0.453 0.425 0.746 0.8 0.878 0.559 0.188 1.078 0.254 1.559 0.2-0.106 0.16-0.309 0.281-0.602 0.363-0.586 0.156-1.199 0.012-1.839-0.441-0.133-0.106-0.239-0.266-0.321-0.481-0.051-0.16-0.16-0.281-0.32-0.359-0.184-0.082-0.387-0.16-0.598-0.243zm1.078 1.481c0.614 0.109 1.043 0.387 1.282 0.84-0.133 0.906-0.454 1.16-0.961 0.762-0.426-0.293-0.68-0.653-0.758-1.083-0.055-0.425 0.094-0.597 0.437-0.519zm-1.32-0.957c0.188 0.211 0.254 0.426 0.203 0.637-0.137 0.32-0.387 0.386-0.762 0.203l-0.281-0.203c-0.183-0.078-0.25-0.332-0.199-0.758 0-0.348 0.066-0.508 0.199-0.481l0.16 0.078c0.293 0.137 0.52 0.309 0.68 0.524zm-0.238-3.082c0.984 0.215 1.519 0.535 1.601 0.961 0.051 0.906-0.468 1.055-1.562 0.437-0.293-0.183-0.481-0.476-0.559-0.879-0.054-0.425 0.121-0.597 0.52-0.519zm-13.242-14.281c-0.559-0.504-1.184-0.746-1.879-0.719-0.586 0-1.121 0.148-1.598 0.441 0.105-0.054 0.238-0.109 0.398-0.16-0.48 0.426-0.761 0.824-0.839 1.199-0.082 0.426 0.039 0.774 0.359 1.039 0.293 0.215 0.695 0.309 1.199 0.282l1.281-0.039c-0.265 0.211-0.507 0.371-0.718 0.48 0.664-0.16 1.132-0.559 1.398-1.199 0.188-0.453 0.149-0.895-0.121-1.32-0.211-0.321-0.57-0.547-1.078-0.68 0.586 0.078 1.121 0.305 1.598 0.676zm21.121 17.722c0.34-0.859 0.621-1.648 0.84-2.359l-0.161 0.476c-0.195 0.543-0.422 1.168-0.679 1.883zm-5.16-2.601c-0.211-0.215-0.305-0.375-0.278-0.481 0.024-0.078 0.024-0.172 0-0.277l0.039 0.039c0.133 0.133 0.332 0.277 0.598 0.437 0.375 0.27 0.707 0.43 1 0.481l0.762 0.199c-0.508 0.27-0.973 0.309-1.399 0.121-0.297-0.105-0.535-0.277-0.722-0.519zm-6.559 0.242c0.266-0.027 0.492 0.172 0.68 0.598 0.16 0.453 0.066 0.64-0.282 0.558-0.238-0.078-0.425-0.277-0.558-0.597-0.16-0.348-0.106-0.536 0.16-0.559zm1.039-1.402c-0.106 0.16-0.398 0.105-0.879-0.161-0.32-0.187-0.574-0.503-0.762-0.961-0.238-0.503-0.078-0.691 0.481-0.558 1.066 0.215 1.496 0.586 1.281 1.121-0.027 0.32-0.066 0.504-0.121 0.559zm-4.801-4.559c-0.078-0.266-0.078-0.48 0-0.641 0.16-0.242 0.281-0.398 0.36-0.48-0.051 0.215-0.067 0.426-0.039 0.641 0.054 0.398 0.253 0.691 0.601 0.878l0.961 0.442c-0.297 0.187-0.746 0.105-1.363-0.242-0.211-0.106-0.383-0.305-0.52-0.598zm-7.199-8.039c-0.266 0.266-0.68 0.332-1.238 0.199l-0.242-0.082c-0.211-0.078-0.36-0.254-0.438-0.519-0.109-0.293-0.066-0.52 0.117-0.68 0.16-0.215 0.414-0.359 0.762-0.442l-0.02 0.02c0.02-0.008 0.039-0.012 0.059-0.02 0.609-0.214 1.074-0.132 1.402 0.243 0.371 0.398 0.344 0.718-0.082 0.957-0.078 0.136-0.187 0.242-0.32 0.324zm16.16 12.117c0.082 0.133 0.067 0.281-0.039 0.442-0.187 0.132-0.402 0.16-0.641 0.078-0.293-0.106-0.453-0.161-0.48-0.161-0.188-0.078-0.32-0.199-0.398-0.359-0.11-0.133-0.227-0.266-0.36-0.398-0.055-0.055-0.043-0.067 0.039-0.039l1.68 0.32c0.105 0 0.172 0.039 0.199 0.117z" inkscape:connector-curvature="0"/>
      <g id="g136">
        <g id="g138">
          <g id="g144">
            <path id="path158" style="fill-rule:evenodd;fill:url(#radialGradient146)" d="m18.227 24.881-0.157-0.16c-0.027 0.054-0.027 0.121 0 0.203l0.157-0.043zm-3.118-0.238c-0.242-0.403-0.468-0.801-0.679-1.2-0.453-0.855-1.094-2.468-1.922-4.84-0.906-2.402-1.692-4.296-2.36-5.679-0.8-1.656-2.199-3.375-4.199-5.16-0.586-0.481-1.133-0.961-1.64-1.442-0.028 1.387-0.2 2.719-0.52 4-0.906 2.348-1.508 4.094-1.801 5.238-0.453 1.922-0.039 3.84 1.239 5.762 1.253 1.895 2.867 2.906 4.843 3.039 1.09 0.082 2.68-0.011 4.758-0.277 0.774 0.051 1.535 0.238 2.281 0.559z" inkscape:connector-curvature="0"/>
          </g>
        </g>
      </g>
      <g id="g160">
        <g id="g162">
          <g id="g168">
            <path id="path180" style="fill-rule:evenodd;fill:url(#linearGradient170)" d="m25.109 24.201c-0.082-0.027-0.148-0.051-0.199-0.078h-0.043c-0.211 0.16-0.586 0.117-1.117-0.121-0.027-0.027-0.055-0.039-0.082-0.039l-0.242-0.082-0.836 0.84c0.078 0.136 0.117 0.226 0.117 0.281 0 0.133-0.078 0.293-0.238 0.48-0.188 0.133-0.469 0.133-0.84 0l-0.719 0.481-0.043 0.039c0.242 0.105 0.52 0.215 0.84 0.32l-0.48-0.199 0.16-0.121 0.523 0.082c0.317 0 0.57-0.094 0.758-0.281 0.055-0.028 0.094-0.067 0.121-0.121 0.051-0.133 0.106-0.254 0.16-0.36-0.027-0.054-0.027-0.082 0-0.082 0.024-0.105 0.039-0.222 0.039-0.359l0.239-0.52c0.054-0.133 0.16-0.172 0.32-0.121h0.039c0.055 0.028 0.187 0.137 0.402 0.32 0.293 0.083 0.559 0.043 0.801-0.117l0.32-0.242zm2.598-3.32c0.188-0.481 0.336-0.934 0.441-1.36l-1 2.68c0.188-0.348 0.348-0.719 0.481-1.117 0.027-0.055 0.055-0.121 0.078-0.203zm-0.719 1.441 0.039-0.039c0.43-1.199 0.52-2.226 0.282-3.082-0.133-0.48-0.36-0.613-0.68-0.398-0.188 0.16-0.414 0.386-0.68 0.679 0.051 0.028 0.133 0.067 0.239 0.121 0.109 0.106 0.253 0.239 0.441 0.399 0.215 0.215 0.281 0.453 0.199 0.719l-0.117 0.363c-0.109 0.133-0.523 0.078-1.242-0.16v-0.043l-0.199-0.199c-0.055 0.054-0.094 0.105-0.122 0.16 0.133 0.187 0.293 0.386 0.481 0.601l0.441 0.239c0.371 0.187 0.614 0.226 0.719 0.121 0.133-0.082 0.238-0.16 0.32-0.243 0.051-0.023 0.039 0.161-0.039 0.563l-0.082 0.199z" inkscape:connector-curvature="0"/>
          </g>
        </g>
      </g>
      <path id="path182" style="fill-rule:evenodd;fill:#e7e5e0" d="m24.789 24.443c-0.242 0.16-0.508 0.2-0.801 0.117-0.215-0.183-0.347-0.292-0.398-0.32h-0.043c-0.16-0.051-0.266-0.012-0.32 0.121l-0.239 0.52c0 0.137-0.011 0.254-0.039 0.359-0.027 0-0.027 0.028 0 0.082-0.054 0.106-0.109 0.227-0.16 0.36-0.027 0.054-0.066 0.093-0.121 0.121-0.184 0.187-0.441 0.281-0.758 0.281l-0.519-0.082-0.161 0.121c0.532 0.133 1.079 0.039 1.641-0.281 0.106-0.051 0.199-0.106 0.277-0.16 0.399-0.239 0.946-0.653 1.641-1.239zm-3.84 0.719 0.36-0.16c0.187-0.055 0.398-0.465 0.64-1.238h-0.242c-0.32 0.027-0.707-0.137-1.16-0.481-0.238-0.187-0.426-0.359-0.559-0.519-0.16-0.161-0.32-0.282-0.48-0.364-0.106-0.078-0.227-0.066-0.36 0.043-0.187 0.184-0.375 0.305-0.558 0.36-0.297 0.05-0.563-0.094-0.801-0.442l-0.32-0.519c-0.106 0.265-0.188 0.746-0.242 1.441 0 0.344 0.109 0.598 0.32 0.758 0.16 0.133 0.469 0.309 0.922 0.519 0.453 0.188 0.933 0.149 1.441-0.117 0.266-0.027 0.613 0.211 1.039 0.719zm-0.402-4.801c-0.078 0.055-0.16 0.16-0.238 0.321-0.055 0.187-0.149 0.32-0.282 0.402-0.105 0.051-0.347-0.043-0.718-0.281-0.399-0.293-0.668-0.481-0.801-0.563-0.133-0.105-0.254-0.344-0.36-0.719l-0.16-0.48c-0.16 0.453-0.254 0.762-0.281 0.922 0.027 0.347 0.348 0.625 0.961 0.84 0.242 0.078 0.414 0.215 0.52 0.398 0.054 0.106 0.093 0.242 0.121 0.402l0.519 0.321 0.641 0.597-0.121-1c0-0.265 0.093-0.574 0.281-0.918 0.082-0.214 0.172-0.375 0.281-0.48l-0.363 0.238zm-1.84 3.961-0.078-0.039c-0.481-0.242-0.668-0.469-0.559-0.68 0.078-0.187 0.332-0.269 0.758-0.242 0.106 0 0.227-0.011 0.36-0.039 0.082 0 0.16 0.067 0.242 0.199 0.132 0.188 0.183 0.36 0.16 0.52-0.055 0.293-0.348 0.387-0.883 0.281zm0.922-2.762c-0.055-0.078-0.082-0.171-0.082-0.277 0-0.082 0.066-0.109 0.203-0.082 0.16 0.055 0.227 0.16 0.199 0.32-0.027 0.188-0.133 0.2-0.32 0.039zm-1.68-4c0.211 0.083 0.414 0.161 0.598 0.243 0.16 0.078 0.269 0.199 0.32 0.359 0.082 0.215 0.188 0.375 0.321 0.481 0.64 0.453 1.253 0.597 1.839 0.441 0.293-0.082 0.496-0.203 0.602-0.363-0.481 0.054-1-0.012-1.559-0.2-0.375-0.132-0.64-0.425-0.8-0.878l-0.122-0.602-0.48 0.082c-0.188 0.051-0.492 0.039-0.918-0.039l-0.48-0.16 0.32 0.519c0 0.051 0.117 0.094 0.359 0.117zm1.438 1c-0.106-0.105-0.172-0.238-0.199-0.398-0.051-0.133 0-0.144 0.16-0.039 0.293 0.293 0.507 0.453 0.64 0.48 0 0.321-0.199 0.305-0.601-0.043zm0.801-2.718c0.187 0.242 0.425 0.414 0.722 0.519 0.426 0.188 0.891 0.149 1.399-0.121l-0.762-0.199c-0.293-0.051-0.625-0.211-1-0.481-0.266-0.16-0.465-0.304-0.598-0.437l-0.039-0.039c0.024 0.105 0.024 0.199 0 0.277-0.027 0.106 0.067 0.266 0.278 0.481zm6.48 6.84 0.32-0.36 0.082-0.199c0.078-0.402 0.09-0.586 0.039-0.563-0.082 0.083-0.187 0.161-0.32 0.243-0.105 0.105-0.348 0.066-0.719-0.121l-0.441-0.239c0.055 0.106 0.121 0.2 0.199 0.278 0.293 0.347 0.574 0.668 0.84 0.961zm-16.801-12.559c0.137 0.293 0.309 0.492 0.52 0.598 0.617 0.347 1.066 0.429 1.363 0.242l-0.961-0.442c-0.348-0.187-0.547-0.48-0.601-0.878-0.028-0.215-0.012-0.426 0.039-0.641-0.079 0.082-0.2 0.238-0.36 0.48-0.078 0.161-0.078 0.375 0 0.641zm8.961 4.078c-0.027-0.078-0.094-0.117-0.199-0.117l-1.68-0.32c-0.082-0.028-0.094-0.016-0.039 0.039 0.133 0.132 0.25 0.265 0.36 0.398 0.078 0.16 0.21 0.281 0.398 0.359 0.027 0 0.187 0.055 0.48 0.161 0.239 0.082 0.454 0.054 0.641-0.078 0.106-0.161 0.121-0.309 0.039-0.442z" inkscape:connector-curvature="0"/>
      <path id="path184" style="fill-rule:evenodd;fill:#6c6756" d="m28.148 19.521c-0.105 0.426-0.253 0.879-0.441 1.36 0.402-0.641 0.668-1.117 0.801-1.438 0.25-0.722 0.554-0.992 0.918-0.8-0.121-0.188-0.281-0.348-0.477-0.481-0.137-0.133-0.269-0.238-0.402-0.32v-0.321c0-0.238-0.039-0.453-0.121-0.64-0.106-0.16-0.266-0.36-0.477-0.598l-0.121-0.16c-0.082-0.055-0.133-0.105-0.16-0.16-0.398-0.348-0.828-0.602-1.281-0.762-0.051 0.242-0.117 0.535-0.199 0.883-0.219 0.711-0.5 1.5-0.84 2.359-0.067 0.168-0.133 0.344-0.2 0.52v-0.039c-0.039 0.09-0.082 0.183-0.121 0.277-0.062 0.16-0.129 0.32-0.199 0.481-0.055 0.187-0.133 0.375-0.242 0.558 0.027 0.028 0.055 0.055 0.082 0.082 0.32-0.586 0.574-1.082 0.758-1.48 0.242-0.614 0.508-1.293 0.801-2.039 0.16-0.375 0.359-0.535 0.601-0.481 1.012 0.293 1.559 0.774 1.641 1.442-0.028 0.078-0.043 0.144-0.043 0.199v0.398c-0.051 0.321-0.145 0.707-0.278 1.16zm0.922 2.762c-0.027 0.051-0.043 0.094-0.043 0.117 0.11-0.105 0.2-0.238 0.282-0.398 0.132-0.238 0.332-0.305 0.601-0.199 0.266 0.105 0.449 0.371 0.559 0.8-0.028-0.347-0.082-0.64-0.16-0.882-0.133-0.371-0.36-0.664-0.68-0.879-0.055 0.16-0.121 0.359-0.203 0.601l-0.078 0.2c-0.078 0.187-0.172 0.398-0.278 0.64zm-24.441-21.242c0.105 0.242 0.133 0.492 0.078 0.762-0.051 0.238 0 0.437 0.16 0.597 0.11 0.082 0.321 0.227 0.641 0.442 1.066 0.801 2.453 1.972 4.16 3.519v0.039c0.082 0.055 0.16 0.121 0.242 0.203 0.133 0.079 0.266 0.172 0.399 0.282 0.078 0.078 0.171 0.144 0.281 0.199 2.027 1.574 3.504 2.531 4.437 2.879 0.641 0.215 2.176 0.64 4.602 1.281 2.16 0.481 3.574 0.891 4.238 1.238 0.801 0.403 1.387 0.774 1.762 1.121 0.398 0.375 0.664 0.829 0.797 1.36 0.054-0.406 0.054-0.754 0-1.039l-0.039-0.16c-0.028-0.028-0.051-0.067-0.078-0.121-0.028-0.161-0.094-0.305-0.2-0.438-0.16-0.27-0.453-0.508-0.882-0.723l-1.481-0.558c-2.293-0.535-3.984-0.934-5.078-1.199-1.895-0.481-3.293-1.028-4.199-1.641-2.27-1.547-3.59-2.481-3.961-2.801-0.531-0.351-0.918-0.648-1.16-0.879-0.016-0.015-0.028-0.027-0.039-0.043-1.153-1.039-1.914-1.668-2.282-1.879l-0.359-0.281c-0.426-0.293-0.785-0.625-1.078-1-0.535-0.641-0.856-1.027-0.961-1.16zm-1.961 1.043 0.242-0.242c-0.137 0.027-0.297 0.039-0.48 0.039-0.907-0.051-1.293-0.438-1.16-1.16l-0.403 0.281c-0.183 0.16-0.226 0.387-0.117 0.68 0.078 0.269 0.227 0.441 0.438 0.519l0.242 0.082c0.558 0.133 0.972 0.067 1.238-0.199z" inkscape:connector-curvature="0"/>
      <g id="g186">
        <g id="g188">
          <g id="g194">
            <path id="path206" style="fill-rule:evenodd;fill:url(#linearGradient196)" d="m11.188 28.361c-0.106 0-0.184-0.011-0.239-0.039 0.078 0.078 0.227 0.094 0.438 0.039h-0.199zm0.281-1.597c0.375-0.746 0.613-1.149 0.719-1.204 0.105-0.05 0.175 0 0.199 0.161 0.027 0.136 0.015 0.254-0.039 0.363-0.266 0.769-0.641 1.316-1.121 1.637-0.157 0.109-0.079-0.211 0.242-0.957zm0.758-1.922c-0.047 0.14-0.114 0.277-0.2 0.398-0.425 1.067-0.773 1.867-1.039 2.403-0.16 0.265-0.199 0.48-0.121 0.64 0.75-0.109 1.36-0.629 1.84-1.562 0.242-0.481 0.297-0.918 0.16-1.321-0.133-0.371-0.344-0.558-0.64-0.558z" inkscape:connector-curvature="0"/>
          </g>
        </g>
      </g>
    </g>
  </g>
<metadata><rdf:RDF><cc:Work><dc:format>image/svg+xml</dc:format><dc:type rdf:resource="http://purl.org/dc/dcmitype/StillImage"/><cc:license rdf:resource="http://creativecommons.org/licenses/publicdomain/"/><dc:publisher><cc:Agent rdf:about="http://openclipart.org/"><dc:title>Openclipart</dc:title></cc:Agent></dc:publisher></cc:Work><cc:License rdf:about="http://creativecommons.org/licenses/publicdomain/"><cc:permits rdf:resource="http://creativecommons.org/ns#Reproduction"/><cc:permits rdf:resource="http://creativecommons.org/ns#Distribution"/><cc:permits rdf:resource="http://creativecommons.org/ns#DerivativeWorks"/></cc:License></rdf:RDF></metadata></svg>
